REM DIRINDEX 1\2\6,1\2\7,1\2\8,1\2\9,1\3\10,1\3\11,1\4\12,1\4\13,1\4\14,1\5\15,1\5\16,1\5\17
REM DIRNAME cjc029,folder01,folder02,folder03,folder04,folder05,folder06,folder07,folder08,folder09,folder10,folder11,folder12,folder13,folder14,folder15,folder16
TITLE ""
FILE "1400_3_sec02_0116_0132.mp3" MP3
  TRACK 01 AUDIO
    TITLE "0:"
    INDEX 01 00:00:00
  TRACK 02 AUDIO
    TITLE "17:cjc029_4659"
    INDEX 01 00:00:15
  TRACK 03 AUDIO
    TITLE "0:"
    INDEX 01 00:01:58
  TRACK 04 AUDIO
    TITLE "16:cjc029_4660"
    INDEX 01 00:01:66
  TRACK 05 AUDIO
    TITLE "0:"
    INDEX 01 00:03:10
  TRACK 06 AUDIO
    TITLE "17:cjc029_4661"
    INDEX 01 00:03:74
  TRACK 07 AUDIO
    TITLE "0:"
    INDEX 01 00:05:07
  TRACK 08 AUDIO
    TITLE "16:cjc029_4662"
    INDEX 01 00:05:14
  TRACK 09 AUDIO
    TITLE "0:"
    INDEX 01 00:06:31
  TRACK 10 AUDIO
    TITLE "17:cjc029_4663"
    INDEX 01 00:07:17
  TRACK 11 AUDIO
    TITLE "0:"
    INDEX 01 00:08:52
  TRACK 12 AUDIO
    TITLE "16:cjc029_4664"
    INDEX 01 00:08:60
  TRACK 13 AUDIO
    TITLE "0:"
    INDEX 01 00:09:63
  TRACK 14 AUDIO
    TITLE "17:cjc029_4665"
    INDEX 01 00:10:49
  TRACK 15 AUDIO
    TITLE "0:"
    INDEX 01 00:11:62
  TRACK 16 AUDIO
    TITLE "16:cjc029_4666"
    INDEX 01 00:11:66
  TRACK 17 AUDIO
    TITLE "0:"
    INDEX 01 00:13:06
  TRACK 18 AUDIO
    TITLE "17:cjc029_4667"
    INDEX 01 00:13:71
  TRACK 19 AUDIO
    TITLE "0:"
    INDEX 01 00:15:30
  TRACK 20 AUDIO
    TITLE "16:cjc029_4668"
    INDEX 01 00:15:36
  TRACK 21 AUDIO
    TITLE "0:"
    INDEX 01 00:16:48
  TRACK 22 AUDIO
    TITLE "17:cjc029_4669"
    INDEX 01 00:17:31
  TRACK 23 AUDIO
    TITLE "0:"
    INDEX 01 00:18:62
  TRACK 24 AUDIO
    TITLE "16:cjc029_4670"
    INDEX 01 00:18:66
  TRACK 25 AUDIO
    TITLE "0:"
    INDEX 01 00:20:00
  TRACK 26 AUDIO
    TITLE "17:cjc029_4671"
    INDEX 01 00:20:63
  TRACK 27 AUDIO
    TITLE "0:"
    INDEX 01 00:22:05
  TRACK 28 AUDIO
    TITLE "16:cjc029_4672"
    INDEX 01 00:22:11
  TRACK 29 AUDIO
    TITLE "0:"
    INDEX 01 00:23:03
  TRACK 30 AUDIO
    TITLE "17:cjc029_4673"
    INDEX 01 00:23:61
  TRACK 31 AUDIO
    TITLE "0:"
    INDEX 01 00:25:23
  TRACK 32 AUDIO
    TITLE "16:cjc029_4674"
    INDEX 01 00:25:31
  TRACK 33 AUDIO
    TITLE "0:"
    INDEX 01 00:26:42
  TRACK 34 AUDIO
    TITLE "17:cjc029_4675"
    INDEX 01 00:27:28
  TRACK 35 AUDIO
    TITLE "0:"
    INDEX 01 00:29:62
  TRACK 36 AUDIO
    TITLE "16:cjc029_4676"
    INDEX 01 00:29:68
  TRACK 37 AUDIO
    TITLE "0:"
    INDEX 01 00:30:71
  TRACK 38 AUDIO
    TITLE "17:cjc029_4677"
    INDEX 01 00:31:57
  TRACK 39 AUDIO
    TITLE "0:"
    INDEX 01 00:34:43
  TRACK 40 AUDIO
    TITLE "16:cjc029_4678"
    INDEX 01 00:34:47
  TRACK 41 AUDIO
    TITLE "0:"
    INDEX 01 00:35:47
  TRACK 42 AUDIO
    TITLE "17:cjc029_4679"
    INDEX 01 00:36:31
  TRACK 43 AUDIO
    TITLE "0:"
    INDEX 01 00:37:67
  TRACK 44 AUDIO
    TITLE "16:cjc029_4680"
    INDEX 01 00:37:71
  TRACK 45 AUDIO
    TITLE "0:"
    INDEX 01 00:39:17
  TRACK 46 AUDIO
    TITLE "17:cjc029_4681"
    INDEX 01 00:39:74
  TRACK 47 AUDIO
    TITLE "0:"
    INDEX 01 00:41:55
  TRACK 48 AUDIO
    TITLE "16:cjc029_4682"
    INDEX 01 00:41:59
  TRACK 49 AUDIO
    TITLE "0:"
    INDEX 01 00:42:61
  TRACK 50 AUDIO
    TITLE "17:cjc029_4683"
    INDEX 01 00:43:46
  TRACK 51 AUDIO
    TITLE "0:"
    INDEX 01 00:44:48
  TRACK 52 AUDIO
    TITLE "16:cjc029_4684"
    INDEX 01 00:44:63
  TRACK 53 AUDIO
    TITLE "0:"
    INDEX 01 00:45:55
  TRACK 54 AUDIO
    TITLE "17:cjc029_4685"
    INDEX 01 00:46:39
  TRACK 55 AUDIO
    TITLE "0:"
    INDEX 01 00:47:50
  TRACK 56 AUDIO
    TITLE "16:cjc029_4686"
    INDEX 01 00:47:54
  TRACK 57 AUDIO
    TITLE "0:"
    INDEX 01 00:49:04
  TRACK 58 AUDIO
    TITLE "17:cjc029_4687"
    INDEX 01 00:49:67
  TRACK 59 AUDIO
    TITLE "0:"
    INDEX 01 00:50:66
  TRACK 60 AUDIO
    TITLE "16:cjc029_4688"
    INDEX 01 00:50:72
  TRACK 61 AUDIO
    TITLE "0:"
    INDEX 01 00:52:02
  TRACK 62 AUDIO
    TITLE "17:cjc029_4689"
    INDEX 01 00:52:57
  TRACK 63 AUDIO
    TITLE "0:"
    INDEX 01 00:53:68
  TRACK 64 AUDIO
    TITLE "16:cjc029_4690"
    INDEX 01 00:53:70
  TRACK 65 AUDIO
    TITLE "0:"
    INDEX 01 00:54:68
  TRACK 66 AUDIO
    TITLE "17:cjc029_4691"
    INDEX 01 00:55:53
  TRACK 67 AUDIO
    TITLE "0:"
    INDEX 01 00:56:55
  TRACK 68 AUDIO
    TITLE "16:cjc029_4692"
    INDEX 01 00:56:61
  TRACK 69 AUDIO
    TITLE "0:"
    INDEX 01 00:58:03
